<?xml version="1.0" encoding="UTF-8"?>
<svg version="1.1" xmlns="http://www.w3.org/2000/svg" width="195" height="195">
<path d="M0 0 C0.98830811 0.35034302 0.98830811 0.35034302 1.99658203 0.70776367 C6.58055218 2.34866029 10.73668057 4.3337924 15 6.6875 C16.134375 7.31011719 17.26875 7.93273438 18.4375 8.57421875 C19.283125 9.04472656 20.12875 9.51523438 21 10 C21 10.66 21 11.32 21 12 C22.08667969 12.36544922 22.08667969 12.36544922 23.1953125 12.73828125 C28.28584501 15.02831189 31.99033857 19.19082164 36 23 C36.680625 23.639375 37.36125 24.27875 38.0625 24.9375 C41.6095835 28.36227028 44.51699674 31.72923439 47 36 C47 36.66 47 37.32 47 38 C47.66 38 48.32 38 49 38 C53.17303966 45.47864972 57.26649845 52.85815418 60 61 C60.37253906 62.01835938 60.74507812 63.03671875 61.12890625 64.0859375 C67.15940024 83.45916208 66.21153338 107.12812814 59 126 C58.76643799 126.65887207 58.53287598 127.31774414 58.29223633 127.99658203 C56.65133971 132.58055218 54.6662076 136.73668057 52.3125 141 C51.68988281 142.134375 51.06726563 143.26875 50.42578125 144.4375 C49.95527344 145.283125 49.48476562 146.12875 49 147 C48.34 147 47.68 147 47 147 C46.75636719 147.72445312 46.51273438 148.44890625 46.26171875 149.1953125 C43.97168811 154.28584501 39.80917836 157.99033857 36 162 C35.360625 162.680625 34.72125 163.36125 34.0625 164.0625 C30.63772972 167.6095835 27.27076561 170.51699674 23 173 C22.34 173 21.68 173 21 173 C21 173.66 21 174.32 21 175 C13.52135028 179.17303966 6.14184582 183.26649845 -2 186 C-3.01835938 186.37253906 -4.03671875 186.74507812 -5.0859375 187.12890625 C-24.45916208 193.15940024 -48.12812814 192.21153338 -67 185 C-67.65887207 184.76643799 -68.31774414 184.53287598 -68.99658203 184.29223633 C-73.58055218 182.65133971 -77.73668057 180.6662076 -82 178.3125 C-83.134375 177.68988281 -84.26875 177.06726563 -85.4375 176.42578125 C-86.283125 175.95527344 -87.12875 175.48476562 -88 175 C-88 174.34 -88 173.68 -88 173 C-88.72445312 172.75636719 -89.44890625 172.51273438 -90.1953125 172.26171875 C-95.28584501 169.97168811 -98.99033857 165.80917836 -103 162 C-104.0209375 161.0409375 -104.0209375 161.0409375 -105.0625 160.0625 C-108.6095835 156.63772972 -111.51699674 153.27076561 -114 149 C-114 148.34 -114 147.68 -114 147 C-114.66 147 -115.32 147 -116 147 C-120.17303966 139.52135028 -124.26649845 132.14184582 -127 124 C-127.55880859 122.47246094 -127.55880859 122.47246094 -128.12890625 120.9140625 C-134.15940024 101.54083792 -133.21153338 77.87187186 -126 59 C-125.76643799 58.34112793 -125.53287598 57.68225586 -125.29223633 57.00341797 C-123.65133971 52.41944782 -121.6662076 48.26331943 -119.3125 44 C-118.37857422 42.2984375 -118.37857422 42.2984375 -117.42578125 40.5625 C-116.95527344 39.716875 -116.48476562 38.87125 -116 38 C-115.34 38 -114.68 38 -114 38 C-113.75636719 37.27554688 -113.51273438 36.55109375 -113.26171875 35.8046875 C-110.97168811 30.71415499 -106.80917836 27.00966143 -103 23 C-102.360625 22.319375 -101.72125 21.63875 -101.0625 20.9375 C-97.63772972 17.3904165 -94.27076561 14.48300326 -90 12 C-89.34 12 -88.68 12 -88 12 C-88 11.34 -88 10.68 -88 10 C-80.52135028 5.82696034 -73.14184582 1.73350155 -65 -1 C-63.47246094 -1.55880859 -63.47246094 -1.55880859 -61.9140625 -2.12890625 C-42.54083792 -8.15940024 -18.87187186 -7.21153338 0 0 Z " fill="#FDFEFE" transform="translate(131,5)"/>
<path d="M0 0 C0.99878174 0.35312256 1.99756348 0.70624512 3.02661133 1.07006836 C6.2290431 2.20524294 9.42750985 3.35098478 12.625 4.5 C13.67768066 4.87785645 14.73036133 5.25571289 15.81494141 5.64501953 C19.926268 7.1221618 24.03735371 8.59984992 28.14404297 10.08984375 C37.94461015 13.64094318 47.78341247 17.05544437 57.625 20.5 C57.625 44.92 57.625 69.34 57.625 94.5 C49.63175337 98.13329392 41.72932112 101.43303899 33.51953125 104.4609375 C28.1021634 106.48536495 22.85218908 108.73408581 17.60205078 111.15722656 C11.90564765 113.72654075 6.11243393 116.05133808 0.3125 118.375 C-0.30665283 118.63087891 -0.92580566 118.88675781 -1.5637207 119.15039062 C-3.38697858 119.90342878 -5.21881578 120.63558769 -7.05078125 121.3671875 C-8.6582019 122.01856689 -8.6582019 122.01856689 -10.2980957 122.68310547 C-16.01050833 124.19970728 -20.53597644 122.20943961 -25.85546875 120.05859375 C-26.46154465 119.81525803 -27.06762054 119.5719223 -27.69206238 119.32121277 C-29.65134509 118.53260792 -31.60692234 117.7352429 -33.5625 116.9375 C-34.92057367 116.38875904 -36.27881054 115.8404218 -37.63720703 115.29248047 C-45.78546423 111.99792844 -53.89961242 108.6260903 -61.98120117 105.17114258 C-67.7195437 102.73216923 -73.52377066 100.5075643 -79.39208984 98.40087891 C-82.35590739 97.32518061 -84.73126894 96.26248737 -87.375 94.5 C-87.73576355 91.45016479 -87.73576355 91.45016479 -87.71557617 87.47998047 C-87.71601425 86.75792419 -87.71645233 86.03586792 -87.71690369 85.29193115 C-87.71480999 82.90007692 -87.69145257 80.5089196 -87.66796875 78.1171875 C-87.66237484 76.46095157 -87.65810377 74.80471068 -87.65510559 73.14846802 C-87.64364063 68.7852004 -87.61415948 64.42223148 -87.58099365 60.05908203 C-87.55032818 55.60843955 -87.53660781 51.15774889 -87.52148438 46.70703125 C-87.48929116 37.97121696 -87.43807515 29.23564561 -87.375 20.5 C-84.83368409 19.54561369 -82.29224381 18.59156084 -79.75073242 17.63769531 C-79.03797905 17.36998322 -78.32522568 17.10227112 -77.59087372 16.82644653 C-68.39901056 13.37733598 -59.1635749 10.05431336 -49.91357422 6.76464844 C-47.44903108 5.88384718 -44.98720894 4.99748776 -42.52783203 4.10253906 C-39.24722425 2.90882565 -35.96135563 1.73073325 -32.67172241 0.56213379 C-30.78824339 -0.11132564 -28.91027755 -0.8001408 -27.0324707 -1.48925781 C-16.48303321 -5.20904834 -10.24469402 -3.68142663 0 0 Z " fill="#9FC9C9" transform="translate(110.375,39.5)"/>
<path d="M0 0 C3.99190793 0.68699815 7.63506708 1.85052717 11.44262695 3.22485352 C12.07760951 3.45295432 12.71259207 3.68105513 13.36681652 3.91606808 C15.40850708 4.65039227 17.44841274 5.38953776 19.48828125 6.12890625 C20.75391289 6.58491521 22.01965949 7.04060526 23.28552246 7.49597168 C27.96257425 9.18095396 32.63740482 10.87209658 37.3125 12.5625 C47.769375 16.336875 58.22625 20.11125 69 24 C69 48.42 69 72.84 69 98 C58.87447361 94.62482454 58.87447361 94.62482454 54.85424805 92.99462891 C53.95268478 92.63059967 53.05112152 92.26657043 52.12223816 91.89151001 C51.17826675 91.50707733 50.23429535 91.12264465 49.26171875 90.7265625 C48.25969925 90.32094086 47.25767975 89.91531921 46.22529602 89.49740601 C43.04497908 88.20918067 39.86625063 86.9170847 36.6875 85.625 C34.5658524 84.76538508 32.44410841 83.90600802 30.32226562 83.046875 C24.54488124 80.70597251 18.77118936 78.35613098 13 76 C12.28023987 75.70653687 11.56047974 75.41307373 10.81890869 75.11071777 C9.07201786 74.39721371 7.32691248 73.67934206 5.58203125 72.9609375 C4.69362549 72.59532715 3.80521973 72.2297168 2.88989258 71.85302734 C1 71 1 71 0 70 C-0.09429342 67.82194281 -0.11742538 65.6407872 -0.11352539 63.46069336 C-0.11367142 62.77779739 -0.11381744 62.09490143 -0.1139679 61.39131165 C-0.11326876 59.12412386 -0.1054764 56.85701726 -0.09765625 54.58984375 C-0.09579207 53.02185613 -0.09436817 51.45386793 -0.09336853 49.88587952 C-0.08954334 45.75123497 -0.07971306 41.61662534 -0.06866455 37.48199463 C-0.05845044 33.26599602 -0.05387091 29.04999178 -0.04882812 24.83398438 C-0.03809079 16.55597353 -0.02101436 8.2779911 0 0 Z " fill="#FDFEFE" transform="translate(25,63)"/>
<path d="M0 0 C0 23.43 0 46.86 0 71 C-29.57921113 83.51428163 -29.57921113 83.51428163 -40.75 87.8125 C-49.15188392 91.07420934 -57.49830087 94.39533603 -65.7265625 98.07421875 C-68 99 -68 99 -70 99 C-70 74.58 -70 50.16 -70 25 C-61.42 22.03 -52.84 19.06 -44 16 C-44 25.24 -44 34.48 -44 44 C-38.16479261 41.69999897 -38.16479261 41.69999897 -32.33251953 39.39257812 C-31.60661621 39.10833984 -30.88071289 38.82410156 -30.1328125 38.53125 C-29.38918457 38.23798828 -28.64555664 37.94472656 -27.87939453 37.64257812 C-26 37 -26 37 -24 37 C-24 27.76 -24 18.52 -24 9 C-3.2 0 -3.2 0 0 0 Z " fill="#F7FCFC" transform="translate(166,62)"/>
<path d="M0 0 C1.02134537 0.38388382 2.04269073 0.76776764 3.09498596 1.1632843 C5.25691465 1.97698711 7.4178596 2.79330779 9.57788086 3.61206055 C12.83440564 4.84641374 16.09363202 6.07337669 19.35351562 7.29882812 C30.43194443 11.47180155 41.47789781 15.70867466 52.44140625 20.17578125 C48.47380875 22.82084625 44.32987244 24.32282125 39.87890625 25.98828125 C39.02232422 26.33826172 38.16574219 26.68824219 37.28320312 27.04882812 C30.31631675 29.62274928 26.21733577 28.8827779 19.44140625 26.17578125 C17.42730087 25.47349119 15.41157444 24.77583856 13.39453125 24.08203125 C11.15909899 23.28289928 8.92477241 22.48066939 6.69140625 21.67578125 C5.49870117 21.24797363 4.30599609 20.82016602 3.07714844 20.37939453 C-10.82663939 15.38074632 -24.69494805 10.28452004 -38.55859375 5.17578125 C-38.55859375 4.51578125 -38.55859375 3.85578125 -38.55859375 3.17578125 C-35.0255479 1.79833265 -31.48106655 0.4530897 -27.93359375 -0.88671875 C-26.93457031 -1.27666016 -25.93554688 -1.66660156 -24.90625 -2.06835938 C-23.93300781 -2.43251953 -22.95976563 -2.79667969 -21.95703125 -3.171875 C-21.06677246 -3.51226807 -20.17651367 -3.85266113 -19.25927734 -4.20336914 C-12.59568014 -5.73523749 -6.15119362 -2.34008401 0 0 Z " fill="#F9FDFD" transform="translate(66.55859375,56.82421875)"/>
<path d="M0 0 C1.02230209 0.36405945 2.04460419 0.7281189 3.09788513 1.10321045 C6.35786738 2.26575477 9.61449349 3.43739455 12.87109375 4.609375 C15.03298674 5.38211607 17.19509424 6.15425726 19.35742188 6.92578125 C24.44917672 8.74396247 29.53845865 10.56893594 34.62677002 12.39672852 C38.36168062 13.73738283 42.0985395 15.07254845 45.8359375 16.40625 C46.91480225 16.79135742 47.99366699 17.17646484 49.10522461 17.57324219 C49.83233643 17.83266602 50.55944824 18.09208984 51.30859375 18.359375 C51.30859375 19.019375 51.30859375 19.679375 51.30859375 20.359375 C48.60239923 21.34481554 45.89389892 22.32285908 43.18359375 23.296875 C42.04277344 23.71356445 42.04277344 23.71356445 40.87890625 24.13867188 C40.13125 24.40615234 39.38359375 24.67363281 38.61328125 24.94921875 C37.93249512 25.19534912 37.25170898 25.44147949 36.55029297 25.69506836 C29.93386184 27.65578597 26.27275199 27.04012881 20.03515625 24.4921875 C19.2418541 24.1817601 18.44855194 23.8713327 17.63121033 23.55149841 C15.05995573 22.54220934 12.49700951 21.51338981 9.93359375 20.484375 C8.17370948 19.79002759 6.41320807 19.0972424 4.65209961 18.40600586 C1.15808447 17.0338216 -2.33356158 15.65586092 -5.82373047 14.27392578 C-12.2297507 11.74504821 -18.67350522 9.3218436 -25.12890625 6.921875 C-26.12132324 6.55143066 -27.11374023 6.18098633 -28.13623047 5.79931641 C-30.32065887 4.98429067 -32.50564738 4.17082409 -34.69140625 3.359375 C-34.69140625 2.699375 -34.69140625 2.039375 -34.69140625 1.359375 C-32.01013151 0.31883531 -29.32343029 -0.6979717 -26.62890625 -1.703125 C-25.87673828 -1.99767578 -25.12457031 -2.29222656 -24.34960938 -2.59570312 C-23.60517578 -2.86962891 -22.86074219 -3.14355469 -22.09375 -3.42578125 C-21.08042603 -3.81068726 -21.08042603 -3.81068726 -20.04663086 -4.20336914 C-13.1606664 -5.48177303 -6.37014316 -2.30537569 0 0 Z " fill="#F8FDFD" transform="translate(110.69140625,41.640625)"/>
<path d="M0 0 C1.33789796 0.55364145 2.67646095 1.10567807 4.015625 1.65625 C4.69302734 1.93597656 5.37042969 2.21570312 6.06835938 2.50390625 C9.10477799 3.7351279 12.17631842 4.86550809 15.25 6 C22.52706066 8.70592425 29.77244368 11.49372921 37.00674438 14.31167603 C38.29017356 14.81077047 39.57433142 15.30799527 40.85922241 15.80331421 C42.67637105 16.50435529 44.49059093 17.21297346 46.3046875 17.921875 C47.3654248 18.33405273 48.42616211 18.74623047 49.51904297 19.17089844 C52.0625 20.3125 52.0625 20.3125 54.0625 22.3125 C52.07230817 23.18927658 50.0697049 24.03790432 48.0625 24.875 C46.94875 25.35066406 45.835 25.82632813 44.6875 26.31640625 C36.53260201 28.55724568 29.79679474 25.28152353 22.3125 22.1875 C14.84444677 19.17826282 7.36851938 16.293558 -0.25 13.6875 C-9.58339719 10.48616724 -18.76862684 6.95568752 -27.9375 3.3125 C-27.9375 2.6525 -27.9375 1.9925 -27.9375 1.3125 C-25.75627494 0.43819481 -23.57000158 -0.41158501 -21.375 -1.25 C-20.15683594 -1.72566406 -18.93867187 -2.20132813 -17.68359375 -2.69140625 C-11.08276494 -4.44657971 -6.13222904 -2.58163455 0 0 Z " fill="#F7FDFD" transform="translate(83.9375,48.6875)"/>
<path d="M0 0 C0.99878174 0.35312256 1.99756348 0.70624512 3.02661133 1.07006836 C6.2290431 2.20524294 9.42750985 3.35098478 12.625 4.5 C13.67768066 4.87785645 14.73036133 5.25571289 15.81494141 5.64501953 C19.926268 7.1221618 24.03735371 8.59984992 28.14404297 10.08984375 C37.94461015 13.64094318 47.78341247 17.05544437 57.625 20.5 C57.625 44.92 57.625 69.34 57.625 94.5 C49.63175337 98.13329392 41.72932112 101.43303899 33.51953125 104.4609375 C29.01928776 106.14264284 24.62024812 107.92599532 20.26171875 109.94921875 C14.26635698 112.72030913 8.13319073 115.03227334 1.9375 117.3125 C0.84244141 117.71919922 -0.25261719 118.12589844 -1.38085938 118.54492188 C-4.04427214 119.53352487 -6.70896816 120.51848701 -9.375 121.5 C-9.705 120.84 -10.035 120.18 -10.375 119.5 C3.33396411 113.89072378 17.05215041 108.30402088 30.79754639 102.7845459 C32.08636757 102.26666452 33.3748278 101.74788385 34.66290283 101.22814941 C36.48514466 100.49321243 38.3089586 99.76217721 40.1328125 99.03125 C41.68959717 98.40573242 41.68959717 98.40573242 43.27783203 97.76757812 C47.35021641 96.22535933 51.4938406 94.87705313 55.625 93.5 C55.625 70.07 55.625 46.64 55.625 22.5 C54.965 22.5 54.305 22.5 53.625 22.5 C53.625 21.84 53.625 21.18 53.625 20.5 C52.68148682 20.40557617 51.73797363 20.31115234 50.76586914 20.21386719 C45.75429287 19.49177467 41.12596783 17.76791274 36.37109375 16.078125 C35.39318375 15.7362616 34.41527374 15.39439819 33.4077301 15.04217529 C30.29050707 13.95079274 27.17651059 12.8505106 24.0625 11.75 C21.99694836 11.02546106 19.93119486 10.30149732 17.86523438 9.578125 C15.84634629 8.8698141 13.82746597 8.16148109 11.80859375 7.453125 C10.82732513 7.10979126 9.84605652 6.76645752 8.83505249 6.41271973 C4.63119413 4.93628867 0.43944088 3.44649476 -3.71435547 1.83398438 C-4.9313916 1.36798828 -6.14842773 0.90199219 -7.40234375 0.421875 C-8.409021 0.0206543 -9.41569824 -0.38056641 -10.45288086 -0.79394531 C-16.00658698 -2.13585509 -20.94296486 -0.47957317 -26.125 1.5625 C-29.17110493 2.75796856 -31.08532382 3.5 -34.375 3.5 C-34.375 4.49 -34.375 5.48 -34.375 6.5 C-34.931875 6.53738281 -35.48875 6.57476562 -36.0625 6.61328125 C-41.6824041 7.09742839 -46.14301283 8.42524647 -51.375 10.5 C-52.365 10.5 -53.355 10.5 -54.375 10.5 C-54.705 11.49 -55.035 12.48 -55.375 13.5 C-56.34953125 13.60183594 -57.3240625 13.70367187 -58.328125 13.80859375 C-62.82308226 14.4502455 -66.89095091 15.9701133 -71.125 17.5625 C-78.98970252 20.5 -78.98970252 20.5 -82.375 20.5 C-82.375 21.16 -82.375 21.82 -82.375 22.5 C-81.80136719 22.63535156 -81.22773437 22.77070312 -80.63671875 22.91015625 C-70.9577059 25.36295617 -61.6987639 28.96570032 -52.375 32.5 C-52.87 33.49 -52.87 33.49 -53.375 34.5 C-64.17859362 31.25892191 -74.77480413 27.35461668 -85.375 23.5 C-85.375 46.6 -85.375 69.7 -85.375 93.5 C-85.705 93.5 -86.035 93.5 -86.375 93.5 C-86.37277939 92.61494781 -86.37055878 91.72989563 -86.36827087 90.81802368 C-86.34825844 82.48931025 -86.33302099 74.16060486 -86.32318783 65.83187294 C-86.31796262 61.54968874 -86.31087152 57.26752436 -86.29956055 52.98535156 C-86.28871883 48.85512471 -86.28272043 44.72491695 -86.28012276 40.59467697 C-86.27827083 39.0165718 -86.27465465 37.43846771 -86.26926994 35.86037064 C-86.26204248 33.65510016 -86.26100978 31.44990926 -86.26147461 29.24462891 C-86.259254 27.98776276 -86.25703339 26.73089661 -86.25474548 25.4359436 C-86.17123608 22.56566583 -86.17123608 22.56566583 -87.375 20.5 C-74.94076428 15.77461981 -62.44636899 11.22180437 -49.91357422 6.76464844 C-47.44903108 5.88384718 -44.98720894 4.99748776 -42.52783203 4.10253906 C-39.24722425 2.90882565 -35.96135563 1.73073325 -32.67172241 0.56213379 C-30.78824339 -0.11132564 -28.91027755 -0.8001408 -27.0324707 -1.48925781 C-16.48303321 -5.20904834 -10.24469402 -3.68142663 0 0 Z " fill="#A1CCCB" transform="translate(110.375,39.5)"/>
<path d="M0 0 C0 8.58 0 17.16 0 26 C-5.61 27.98 -11.22 29.96 -17 32 C-17 23.42 -17 14.84 -17 6 C-13.04 4.35 -9.08 2.7 -5 1 C-3 0 -3 0 0 0 Z " fill="#F7FDFC" transform="translate(140,72)"/>
<path d="M0 0 C-3 2 -3 2 -6 2 C-6 2.99 -6 3.98 -6 5 C-6.556875 5.03738281 -7.11375 5.07476562 -7.6875 5.11328125 C-13.3074041 5.59742839 -17.76801283 6.92524647 -23 9 C-23.99 9 -24.98 9 -26 9 C-26.33 9.99 -26.66 10.98 -27 12 C-27.97453125 12.10183594 -28.9490625 12.20367187 -29.953125 12.30859375 C-34.44808226 12.9502455 -38.51595091 14.4701133 -42.75 16.0625 C-50.61470252 19 -50.61470252 19 -54 19 C-54 19.66 -54 20.32 -54 21 C-53.42636719 21.13535156 -52.85273437 21.27070312 -52.26171875 21.41015625 C-42.5827059 23.86295617 -33.3237639 27.46570032 -24 31 C-24.495 31.99 -24.495 31.99 -25 33 C-35.80359362 29.75892191 -46.39980413 25.85461668 -57 22 C-57 45.1 -57 68.2 -57 92 C-57.33 92 -57.66 92 -58 92 C-57.99777939 91.11494781 -57.99555878 90.22989563 -57.99327087 89.31802368 C-57.97325844 80.98931025 -57.95802099 72.66060486 -57.94818783 64.33187294 C-57.94296262 60.04968874 -57.93587152 55.76752436 -57.92456055 51.48535156 C-57.91371883 47.35512471 -57.90772043 43.22491695 -57.90512276 39.09467697 C-57.90327083 37.5165718 -57.89965465 35.93846771 -57.89426994 34.36037064 C-57.88704248 32.15510016 -57.88600978 29.94990926 -57.88647461 27.74462891 C-57.884254 26.48776276 -57.88203339 25.23089661 -57.87974548 23.9359436 C-57.79623608 21.06566583 -57.79623608 21.06566583 -59 19 C-45.39488911 13.82965235 -31.71444325 8.8723887 -18 4 C-17.16259277 3.70077637 -16.32518555 3.40155273 -15.46240234 3.09326172 C-13.35342085 2.34329192 -11.24060986 1.60602187 -9.125 0.875 C-7.99320313 0.48054688 -6.86140625 0.08609375 -5.6953125 -0.3203125 C-3 -1 -3 -1 0 0 Z " fill="#ACD1D2" transform="translate(82,41)"/>
<path d="M0 0 C0 5.28 0 10.56 0 16 C-0.99 15.67 -1.98 15.34 -3 15 C-3.33 16.32 -3.66 17.64 -4 19 C-4.99 18.67 -5.98 18.34 -7 18 C-7 12.72 -7 7.44 -7 2 C-2 0 -2 0 0 0 Z " fill="#BDDCDE" transform="translate(122,130)"/>
<path d="M0 0 C0.66 0 1.32 0 2 0 C2 0.99 2 1.98 2 3 C-1.28661096 4.36667868 -4.58000236 5.71618104 -7.875 7.0625 C-8.81214844 7.45244141 -9.74929687 7.84238281 -10.71484375 8.24414062 C-11.61074219 8.60830078 -12.50664062 8.97246094 -13.4296875 9.34765625 C-14.25710449 9.68804932 -15.08452148 10.02844238 -15.93701172 10.37915039 C-18 11 -18 11 -20 10 C-20 9.34 -20 8.68 -20 8 C-17.04329782 6.99513105 -14.08438423 5.99693976 -11.125 5 C-10.28324219 4.71382813 -9.44148437 4.42765625 -8.57421875 4.1328125 C-7.76855469 3.86210938 -6.96289062 3.59140625 -6.1328125 3.3125 C-5.38918457 3.06113281 -4.64555664 2.80976562 -3.87939453 2.55078125 C-2 2 -2 2 0 2 C0 1.34 0 0.68 0 0 Z " fill="#A3CECB" transform="translate(162,60)"/>
<path d="M0 0 C-4.44 2.96 -4.44 2.96 -7 4 C-7.99 3.67 -8.98 3.34 -10 3 C-7.29536552 -0.8183075 -4.37912428 -0.24787496 0 0 Z " fill="#EAFCFC" transform="translate(162,134)"/>
</svg>
